<mxfile host="app.diagrams.net" modified="2024-05-30T04:03:52.862Z" agent="Mozilla/5.0 (Macintosh; Intel Mac OS X 10_15_7) AppleWebKit/537.36 (KHTML, like Gecko) Chrome/124.0.0.0 Safari/537.36" version="24.4.10" etag="15CdNJ65CN28RmvIRd7y" type="github">
  <diagram name="Page-1" id="4TFQ8AdXkdx_AWNu0JsV">
    <mxGraphModel>
      <root>
        <mxCell id="0" />
        <mxCell id="1" parent="0" />
      </root>
    </mxGraphModel>
  </diagram>
</mxfile>
